<?xml version="1.0" encoding="UTF-8" standalone="no"?>
<!-- Created with Inkscape (http://www.inkscape.org/) -->

<svg
   width="533.83789"
   height="90.375076"
   viewBox="0 0 177.94596 30.125025"
   version="1.1"
   id="svg1"
   xmlns="http://www.w3.org/2000/svg"
   xmlns:svg="http://www.w3.org/2000/svg">
  <defs
     id="defs1" />
  <g
     id="layer3"
     transform="translate(-239.46093,-94.808335)">
    <path
       style="letter-spacing:-0.3px;display:none;fill:#1a1a1a"
       d="m 239.46093,94.808335 h 14.62501 v 5.729175 h -8.375 v 5.8125 h 7.95834 v 5.625 h -7.87501 v 7.25001 h 8.50001 v 5.70834 h -14.83335 z m 23.15835,12.375005 h 5.41667 V 94.808335 h 6.31251 v 30.125025 h -6.31251 v -12.04168 h -5.41667 v 12.04168 h -6.3125 V 94.808335 h 6.3125 z m 25.84586,17.75002 -3.75001,-10.89584 h -1.66666 v 10.89584 h -6.31251 V 99.058338 l 4.58334,-4.250003 h 12.89584 v 19.145845 h -3.41667 l 4,10.97918 z m -0.5625,-16.54168 v -7.85417 h -4.85417 v 7.85417 z m 8.92917,-13.583345 h 14.62501 v 5.729175 h -8.37501 v 5.8125 h 7.95834 v 5.625 h -7.875 v 7.25001 h 8.5 v 5.70834 h -14.83334 z m 29.22085,17.291675 V 94.808335 h 5.95834 v 30.125025 h -6.25 l -6.16668,-17.29168 v 17.29168 h -5.91667 V 94.808335 h 6.25001 z m 14.92918,12.83335 h -6.3125 V 99.058338 l 4.5625,-4.250003 h 12.91668 v 22.479185 h -11.16668 z m 4.85417,-13.41668 v -10.97917 h -4.85417 v 10.97917 z m 15.01252,-7.45834 v 20.87502 h -6.31251 v -20.87502 z m 9.2625,20.87502 h -6.8125 l 5.5,-15.81251 -4.54167,-14.312515 h 6.47917 l 2.64584,8.895835 2.6875,-8.895835 h 6.47917 l -4.58333,14.312515 5.5,15.81251 h -6.8125 l -3.27084,-9.35418 z M 385.4152,94.808335 h 14.62501 v 5.729175 h -8.375 v 5.8125 h 7.95834 v 5.625 h -7.87501 v 7.25001 h 8.50001 v 5.70834 H 385.4152 Z m 16.84586,30.125025 V 94.808335 h 6.3125 v 24.416685 h 8.83334 v 5.70834 z"
       id="path11"
       aria-label="EHRENPiXEL" />
    <path
       style="letter-spacing:-0.3px;display:inline;fill:#fcfcfc;fill-opacity:1"
       d="m 239.46093,94.808335 h 14.62501 v 5.729175 h -8.375 v 5.8125 h 7.95834 v 5.625 h -7.87501 v 7.25001 h 8.50001 v 5.70834 h -14.83335 z m 23.15835,12.375005 h 5.41667 V 94.808335 h 6.31251 v 30.125025 h -6.31251 v -12.04168 h -5.41667 v 12.04168 h -6.3125 V 94.808335 h 6.3125 z m 25.84586,17.75002 -3.75001,-10.89584 h -1.66666 v 10.89584 h -6.31251 c -9.8e-4,-10.04167 0.002,-20.08335 -0.002,-30.125025 h 17.48076 v 19.145845 h -3.41667 l 4,10.97918 z m -0.5625,-16.54168 v -7.85417 h -4.85417 v 7.85417 z m 8.92917,-13.583345 h 14.62501 v 5.729175 h -8.37501 v 5.8125 h 7.95834 v 5.625 h -7.875 v 7.25001 h 8.5 v 5.70834 h -14.83334 z m 29.22085,17.291675 V 94.808335 h 5.95834 v 30.125025 h -6.25 l -6.16668,-17.29168 v 17.29168 h -5.91667 V 94.808335 h 6.25001 z m 14.92918,12.83335 h -6.3125 V 99.058338 l 4.5625,-4.250003 h 12.91668 v 22.479185 h -11.16668 z m 4.85417,-13.41668 v -10.97917 h -4.85417 v 10.97917 z m 15.01252,-7.45834 v 20.87502 h -6.31251 v -20.87502 z m 9.2625,20.87502 h -6.8125 l 5.5,-15.81251 -4.54167,-14.312515 h 6.47917 l 2.64584,8.895835 2.6875,-8.895835 h 6.47917 l -4.58333,14.312515 5.5,15.81251 h -6.8125 l -3.27084,-9.35418 z M 385.4152,94.808335 h 14.62501 v 5.729175 h -8.375 v 5.8125 h 7.95834 v 5.625 h -7.87501 v 7.25001 h 8.50001 v 5.70834 H 385.4152 Z m 16.84586,30.125025 V 94.808335 h 6.3125 v 24.416685 h 8.83334 v 5.70834 z"
       id="text10"
       aria-label="EHRENPiXEL" />
    <rect
       style="display:inline;fill:#ff6633;fill-opacity:1"
       id="rect10"
       width="6.31251"
       height="7.4166751"
       x="354.53601"
       y="94.808334" />
  </g>
</svg>
